# xmcd
#
# Track frame offsets:
#	150
#	16643
#	32093
#	46238
#	62746
#
# Disc length: 1050 seconds
# Revision: 0
# Processed by: cddbd v1.5.2PL0 Copyright (c) Steve Scherf et al.
# Submitted via: dBpowerAMP V12.0
#
DISCID=32041805
DTITLE=Amy Westney - Love Shouldn't Hurt 
DYEAR=2017
DGENRE=Country
TTITLE0=Country Music
TTITLE1=Love Shouldn't Hurt
TTITLE2=Bad For Me
TTITLE3=Numb
TTITLE4=Don't Push Me Darlin'
EXTD=
EXTT0=
EXTT1=
EXTT2=
EXTT3=
EXTT4=
PLAYORDER=
